<?xml version="1.0" encoding="UTF-8" standalone="no"?>
<!-- Created with Inkscape (http://www.inkscape.org/) -->

<svg
   width="71.615585mm"
   height="48.643024mm"
   viewBox="0 0 71.615585 48.643024"
   version="1.1"
   id="svg1"
   sodipodi:docname="icon.svg"
   inkscape:export-filename="..\icon.png"
   inkscape:export-xdpi="96"
   inkscape:export-ydpi="96"
   inkscape:version="1.3 (0e150ed6c4, 2023-07-21)"
   xmlns:inkscape="http://www.inkscape.org/namespaces/inkscape"
   xmlns:sodipodi="http://sodipodi.sourceforge.net/DTD/sodipodi-0.dtd"
   xmlns="http://www.w3.org/2000/svg"
   xmlns:svg="http://www.w3.org/2000/svg">
  <sodipodi:namedview
     id="namedview1"
     pagecolor="#ffffff"
     bordercolor="#000000"
     borderopacity="0.25"
     inkscape:showpageshadow="2"
     inkscape:pageopacity="0.0"
     inkscape:pagecheckerboard="0"
     inkscape:deskcolor="#d1d1d1"
     inkscape:document-units="mm"
     inkscape:export-bgcolor="#ffffff00"
     inkscape:zoom="1.9319033"
     inkscape:cx="79.972947"
     inkscape:cy="21.481406"
     inkscape:window-width="1920"
     inkscape:window-height="974"
     inkscape:window-x="-11"
     inkscape:window-y="-11"
     inkscape:window-maximized="1"
     inkscape:current-layer="layer1" />
  <defs
     id="defs1" />
  <g
     inkscape:label="Layer 1"
     inkscape:groupmode="layer"
     id="layer1"
     transform="translate(-12.255177,-8.0097892)">
    <path
       id="path5"
       style="-inkscape-font-specification:'Jost Medium';stroke-width:1.88976"
       d="m 113.74453,48.501967 c -10.26665,0 -19.865502,1.800395 -28.798827,5.400391 -8.799991,3.599996 -16.534512,8.665892 -23.201172,15.199219 -6.533327,6.399993 -11.599223,14.00079 -15.199219,22.800781 -3.599996,8.799992 -5.400391,18.466682 -5.400391,29.000002 0,10.39999 1.800395,20.06667 5.400391,29 3.599996,8.93332 8.600007,16.66589 15,23.19922 6.533327,6.53332 14.265895,11.66706 23.199219,15.40039 8.933325,3.6 18.600009,5.40039 28.999999,5.40039 10.53332,0 20.20001,-1.80039 29,-5.40039 8.93333,-3.73333 16.66785,-8.86707 23.20117,-15.40039 6.53333,-6.53333 11.59923,-14.2659 15.19922,-23.19922 3.6,-8.93333 5.40039,-18.60001 5.40039,-29 0,-10.53332 -1.80039,-20.20001 -5.40039,-29.000002 -3.59999,-8.799991 -8.73373,-16.400788 -15.40039,-22.800781 -6.53332,-6.533327 -14.20001,-11.599223 -23,-15.199219 -8.79999,-3.599996 -18.46668,-5.400391 -29,-5.400391 z m 74,2.400391 V 190.90236 h 44.59961 c 9.86666,0 18.53334,-1.40118 26,-4.20117 7.6,-2.93333 13.53412,-7.4004 17.80078,-13.40039 4.4,-6 6.59961,-13.59884 6.59961,-22.79883 0,-6.66666 -1.33333,-12.40118 -4,-17.20117 -2.66666,-4.8 -6.39922,-8.73217 -11.19922,-11.79883 -4.35263,-2.86031 -9.30969,-4.99645 -14.82226,-6.46485 0.1361,-0.0503 0.28665,-0.0834 0.42187,-0.13476 6.8,-2.53333 12.06746,-6.20001 15.80079,-11 3.86666,-4.933328 5.79882,-10.867457 5.79882,-17.800783 0,-7.999992 -1.93216,-14.600787 -5.79882,-19.800781 -3.73333,-5.199995 -9.00079,-9.066279 -15.80079,-11.59961 -6.66666,-2.533331 -14.39922,-3.798828 -23.19922,-3.798828 z m 98.20118,0 V 190.90236 h 23.79882 V 50.902358 Z m -74.60157,19.398438 h 17 c 6.53333,0 11.86667,1.600784 16,4.800781 4.13333,3.199997 6.20117,7.732949 6.20117,13.599609 0,3.866663 -0.93411,7.200003 -2.80078,10.000001 -1.86666,2.666663 -4.46549,4.734503 -7.79882,6.201173 -3.33333,1.46666 -7.20157,2.19922 -11.60157,2.19922 h -17 z m -97.59961,0.800781 c 9.46666,0 17.73412,2.133728 24.80078,6.400391 7.2,4.266662 12.79884,10.198836 16.79883,17.798828 4,7.466654 6,16.001574 6,25.601564 0,9.59999 -2.06589,18.19883 -6.19922,25.79883 -3.99999,7.46666 -9.60079,13.33294 -16.80078,17.59961 -7.06666,4.26666 -15.26628,6.40039 -24.59961,6.40039 -9.19999,0 -17.399615,-2.13373 -24.599608,-6.40039 -7.199993,-4.26667 -12.866671,-10.13295 -17,-17.59961 -3.999996,-7.6 -6,-16.19884 -6,-25.79883 0,-9.59999 2.000004,-18.13491 6,-25.601564 4.133329,-7.599992 9.800007,-13.532166 17,-17.798828 7.199993,-4.266663 15.399618,-6.400391 24.599608,-6.400391 z m 97.59961,54.400393 h 19.60156 c 4,0 7.66668,0.46706 11.00001,1.40039 3.33333,0.8 6.19961,2.19922 8.5996,4.19922 2.53334,1.86666 4.4655,4.26589 5.79883,7.19922 1.46667,2.79999 2.20117,6.06745 2.20117,9.80078 0,5.19999 -1.19961,9.53333 -3.5996,13 -2.4,3.46666 -5.66746,6.06745 -9.80079,7.80078 -4.13333,1.73333 -8.86589,2.59961 -14.19922,2.59961 h -19.60156 z"
       transform="matrix(0.26458333,0,0,0.26458333,1.3689167,5.3494829)"
       inkscape:label="obi" />
    <path
       id="path6"
       style="-inkscape-font-specification:'Jost Medium';fill:#ff0000;stroke-width:0.499999"
       inkscape:label="dot"
       d="m 80.272533,8.0097892 c -0.987777,0 -1.83434,0.3353464 -2.539897,1.0056233 -0.705553,0.6702771 -1.058333,1.4988935 -1.058333,2.4866705 0,0.952498 0.35278,1.781631 1.058333,2.487186 0.705557,0.670277 1.55212,1.005624 2.539897,1.005624 0.987777,0 1.834343,-0.335347 2.539897,-1.005624 0.705556,-0.705555 1.058333,-1.534688 1.058333,-2.487186 0,-0.987777 -0.352777,-1.8163934 -1.058333,-2.4866705 C 82.106876,8.3451356 81.26031,8.0097892 80.272533,8.0097892 Z" />
  </g>
</svg>
